<?xml version="1.0" encoding="utf-8"?>
<!-- Generator: Adobe Illustrator 26.0.1, SVG Export Plug-In . SVG Version: 6.00 Build 0)  -->
<svg version="1.1" id="Livello_1" xmlns="http://www.w3.org/2000/svg" xmlns:xlink="http://www.w3.org/1999/xlink" x="0px" y="0px"
	 viewBox="0 0 350 350" style="enable-background:new 0 0 350 350;" xml:space="preserve">
<style type="text/css">
	.st0{fill:#004F9F;}
	.st1{fill:#FFFFFF;}
</style>
<rect y="0" class="st0" width="350" height="350"/>
<g>
	<path class="st1" d="M290.66,40.42c-15.08-6.21-36.69-8.84-65.38-8.86c-30.17,0-52.28,3.28-73.2,6.15
		c-1.39-11.74-12.02-16.05-16.94-16.41c-5.9,0.59-8.09,5.04-9.49,8.92l-3.6,12.1C97.75,46.75,84.2,49.5,75.9,52.29
		c-8.43,2.5-12.54,7.03-13.75,12.03c-0.59,1.82-0.83,3.63-0.83,5.27c0.22,8.1,5.46,13.4,11.34,13.68
		c8.95-0.57,15.64-7.54,42.44-16.79L46.83,262.34c-2.78,8.24-4.47,13.85-5.73,18.12c-0.55,1.71-0.81,3.46-0.81,5.11
		c0.75,13.71,15.36,17.14,24.72,17.22c5.58,0.77,10.35-4.28,11.18-9.78c2.05-6.81,9.08-39.62,29.26-107.04
		c13.03-43.49,26.18-82.9,40.99-126.77c22.38-5.28,44.29-9.17,65.11-9.17c10.61-0.02,26.68,1.93,39.52,7.43
		c12.97,5.65,21.94,13.86,21.96,26.91c0,3.04-0.48,6.44-1.62,10.22c-9.11,30.51-46.56,67.88-105.62,67.82
		c-14.82,0.03-26.09-5.25-32.38-5.56c-5.7,0.13-10.66,3.19-14.79,6.24c-3.69,3.06-6.17,5.03-7.73,7.81
		c-0.64,0.84-0.68,1.64-0.75,1.84c-0.07,0.54-0.05,0.68-0.05,0.72c0.46,4.08,2.55,6.64,6.3,12.48l87.88,122.42
		c9.17,11.95,13.17,17.64,20.34,18.39c6.93-0.31,14.03-5.35,20.95-10.5c6.88-5.69,11.97-9.7,13.9-14.22
		c0.13-0.55,0.3-1.06,0.33-2.03c0.27-3.1-3.53-5.21-4.82-5.21c-1.62-0.26-3.13-0.23-5.35-0.23c-6.76,1.2-28.09-20.33-64.71-74.95
		l-26.6-38.84c91.13-2.59,141.91-55.06,153.69-94.48c1.52-5.13,2.35-9.96,2.35-14.54C314.55,57.39,305.73,46.41,290.66,40.42z"/>
</g>
</svg>
